<mxfile host="app.diagrams.net" modified="2021-05-31T02:36:42.813Z" agent="5.0 (Windows)" etag="uFnAaJkVt6dr1XEN40Sg" version="14.7.3" type="github">
  <diagram id="hR06MYBFWdirMz5iL5Hz" name="Page-1">
    <mxGraphModel dx="1929" dy="555" grid="1" gridSize="10" guides="1" tooltips="1" connect="1" arrows="1" fold="1" page="1" pageScale="1" pageWidth="827" pageHeight="1169" math="0" shadow="0">
      <root>
        <mxCell id="0" />
        <mxCell id="1" parent="0" />
        <mxCell id="n9eG2vF8F2sls_XnIKbC-2" value="开始" style="ellipse;whiteSpace=wrap;html=1;" parent="1" vertex="1">
          <mxGeometry x="110" y="10" width="120" height="50" as="geometry" />
        </mxCell>
        <mxCell id="REpQ8TJSSkyMHDdXF8tu-3" style="edgeStyle=orthogonalEdgeStyle;rounded=0;orthogonalLoop=1;jettySize=auto;html=1;entryX=0.5;entryY=0;entryDx=0;entryDy=0;" edge="1" parent="1" source="n9eG2vF8F2sls_XnIKbC-4" target="n9eG2vF8F2sls_XnIKbC-5">
          <mxGeometry relative="1" as="geometry" />
        </mxCell>
        <mxCell id="n9eG2vF8F2sls_XnIKbC-4" value="SI指向4000H单元，DI指向4100H单元" style="rounded=0;whiteSpace=wrap;html=1;" parent="1" vertex="1">
          <mxGeometry x="40" y="80" width="260" height="60" as="geometry" />
        </mxCell>
        <mxCell id="n9eG2vF8F2sls_XnIKbC-5" value="将乘数10存到BL中" style="rounded=0;whiteSpace=wrap;html=1;" parent="1" vertex="1">
          <mxGeometry x="110" y="160" width="120" height="60" as="geometry" />
        </mxCell>
        <mxCell id="n9eG2vF8F2sls_XnIKbC-6" value="循环次数4存入CX" style="rounded=0;whiteSpace=wrap;html=1;" parent="1" vertex="1">
          <mxGeometry x="110" y="240" width="120" height="60" as="geometry" />
        </mxCell>
        <mxCell id="n9eG2vF8F2sls_XnIKbC-7" value="BCD码第一字节数移入AL，与BL相乘，与BCD码第二字节数相加" style="rounded=0;whiteSpace=wrap;html=1;" parent="1" vertex="1">
          <mxGeometry x="-15" y="320" width="370" height="60" as="geometry" />
        </mxCell>
        <mxCell id="n9eG2vF8F2sls_XnIKbC-8" value="结果移入DI中" style="rounded=0;whiteSpace=wrap;html=1;" parent="1" vertex="1">
          <mxGeometry x="110" y="400" width="120" height="60" as="geometry" />
        </mxCell>
        <mxCell id="n9eG2vF8F2sls_XnIKbC-9" value="SI指针向后移两位，指向下一BCD码，DI指针后移一位，指向下一单元" style="rounded=0;whiteSpace=wrap;html=1;" parent="1" vertex="1">
          <mxGeometry x="-40" y="480" width="420" height="60" as="geometry" />
        </mxCell>
        <mxCell id="n9eG2vF8F2sls_XnIKbC-10" value="CX=0？" style="rhombus;whiteSpace=wrap;html=1;" parent="1" vertex="1">
          <mxGeometry x="70" y="560" width="200" height="80" as="geometry" />
        </mxCell>
        <mxCell id="n9eG2vF8F2sls_XnIKbC-11" value="结束" style="ellipse;whiteSpace=wrap;html=1;" parent="1" vertex="1">
          <mxGeometry x="110" y="660" width="120" height="80" as="geometry" />
        </mxCell>
        <mxCell id="REpQ8TJSSkyMHDdXF8tu-2" value="" style="endArrow=classic;html=1;exitX=0.5;exitY=1;exitDx=0;exitDy=0;" edge="1" parent="1" source="n9eG2vF8F2sls_XnIKbC-2" target="n9eG2vF8F2sls_XnIKbC-4">
          <mxGeometry width="50" height="50" relative="1" as="geometry">
            <mxPoint x="260" y="60" as="sourcePoint" />
            <mxPoint x="310" y="10" as="targetPoint" />
          </mxGeometry>
        </mxCell>
        <mxCell id="REpQ8TJSSkyMHDdXF8tu-5" value="" style="endArrow=classic;html=1;exitX=0.5;exitY=1;exitDx=0;exitDy=0;" edge="1" parent="1" source="n9eG2vF8F2sls_XnIKbC-5" target="n9eG2vF8F2sls_XnIKbC-6">
          <mxGeometry width="50" height="50" relative="1" as="geometry">
            <mxPoint x="320" y="260" as="sourcePoint" />
            <mxPoint x="370" y="210" as="targetPoint" />
          </mxGeometry>
        </mxCell>
        <mxCell id="REpQ8TJSSkyMHDdXF8tu-6" value="" style="endArrow=classic;html=1;exitX=0.5;exitY=1;exitDx=0;exitDy=0;entryX=0.5;entryY=0;entryDx=0;entryDy=0;" edge="1" parent="1" source="n9eG2vF8F2sls_XnIKbC-6" target="n9eG2vF8F2sls_XnIKbC-7">
          <mxGeometry width="50" height="50" relative="1" as="geometry">
            <mxPoint x="410" y="290" as="sourcePoint" />
            <mxPoint x="460" y="240" as="targetPoint" />
          </mxGeometry>
        </mxCell>
        <mxCell id="REpQ8TJSSkyMHDdXF8tu-7" value="" style="endArrow=classic;html=1;exitX=0.5;exitY=1;exitDx=0;exitDy=0;" edge="1" parent="1" source="n9eG2vF8F2sls_XnIKbC-7" target="n9eG2vF8F2sls_XnIKbC-8">
          <mxGeometry width="50" height="50" relative="1" as="geometry">
            <mxPoint x="430" y="420" as="sourcePoint" />
            <mxPoint x="480" y="370" as="targetPoint" />
          </mxGeometry>
        </mxCell>
        <mxCell id="REpQ8TJSSkyMHDdXF8tu-8" value="" style="endArrow=classic;html=1;" edge="1" parent="1" target="n9eG2vF8F2sls_XnIKbC-9">
          <mxGeometry width="50" height="50" relative="1" as="geometry">
            <mxPoint x="170" y="463" as="sourcePoint" />
            <mxPoint x="470" y="430" as="targetPoint" />
          </mxGeometry>
        </mxCell>
        <mxCell id="REpQ8TJSSkyMHDdXF8tu-9" value="" style="endArrow=classic;html=1;exitX=0.5;exitY=1;exitDx=0;exitDy=0;entryX=0.5;entryY=0;entryDx=0;entryDy=0;" edge="1" parent="1" source="n9eG2vF8F2sls_XnIKbC-9" target="n9eG2vF8F2sls_XnIKbC-10">
          <mxGeometry width="50" height="50" relative="1" as="geometry">
            <mxPoint x="350" y="610" as="sourcePoint" />
            <mxPoint x="400" y="560" as="targetPoint" />
          </mxGeometry>
        </mxCell>
        <mxCell id="REpQ8TJSSkyMHDdXF8tu-10" value="" style="endArrow=classic;html=1;exitX=1;exitY=0.5;exitDx=0;exitDy=0;entryX=1;entryY=0.5;entryDx=0;entryDy=0;" edge="1" parent="1" source="n9eG2vF8F2sls_XnIKbC-10" target="n9eG2vF8F2sls_XnIKbC-7">
          <mxGeometry width="50" height="50" relative="1" as="geometry">
            <mxPoint x="340" y="650" as="sourcePoint" />
            <mxPoint x="390" y="600" as="targetPoint" />
            <Array as="points">
              <mxPoint x="470" y="600" />
              <mxPoint x="470" y="350" />
            </Array>
          </mxGeometry>
        </mxCell>
        <mxCell id="REpQ8TJSSkyMHDdXF8tu-11" value="" style="endArrow=classic;html=1;exitX=0.5;exitY=1;exitDx=0;exitDy=0;entryX=0.5;entryY=0;entryDx=0;entryDy=0;" edge="1" parent="1" source="n9eG2vF8F2sls_XnIKbC-10" target="n9eG2vF8F2sls_XnIKbC-11">
          <mxGeometry width="50" height="50" relative="1" as="geometry">
            <mxPoint x="270" y="690" as="sourcePoint" />
            <mxPoint x="320" y="640" as="targetPoint" />
          </mxGeometry>
        </mxCell>
      </root>
    </mxGraphModel>
  </diagram>
</mxfile>
